HIERARCHY
ROOT Yihan_28_06:Solving:Hips
{
	OFFSET 0.000000 0.000000 0.000000
	CHANNELS 6 Xposition Yposition Zposition Xrotation Yrotation Zrotation
	JOINT Yihan_28_06:Solving:Spine
	{
		OFFSET 0.000000 -10.933681 1.754050
		CHANNELS 6 Xposition Yposition Zposition Xrotation Yrotation Zrotation
		JOINT Yihan_28_06:Solving:Spine1
		{
			OFFSET 0.000000 -9.267541 1.634120
			CHANNELS 6 Xposition Yposition Zposition Xrotation Yrotation Zrotation
			JOINT Yihan_28_06:Solving:Spine2
			{
				OFFSET 0.000000 -9.374699 0.820182
				CHANNELS 6 Xposition Yposition Zposition Xrotation Yrotation Zrotation
				JOINT Yihan_28_06:Solving:Spine3
				{
					OFFSET 0.000000 -9.410507 0.000000
					CHANNELS 6 Xposition Yposition Zposition Xrotation Yrotation Zrotation
					JOINT Yihan_28_06:Solving:Neck
					{
						OFFSET 0.000000 -12.099224 -1.209920
						CHANNELS 6 Xposition Yposition Zposition Xrotation Yrotation Zrotation
						JOINT Yihan_28_06:Solving:Neck1
						{
							OFFSET 0.000000 -7.349789 -0.643021
							CHANNELS 6 Xposition Yposition Zposition Xrotation Yrotation Zrotation
							JOINT Yihan_28_06:Solving:Head
							{
								OFFSET 0.000000 -7.265778 -1.281152
								CHANNELS 6 Xposition Yposition Zposition Xrotation Yrotation Zrotation
								JOINT Yihan_28_06:Solving:HeadEnd
								{
									OFFSET 0.000000 -9.728081 0.000002
									CHANNELS 6 Xposition Yposition Zposition Xrotation Yrotation Zrotation
									End Site
									{
										OFFSET 0.000000 -9.728081 0.000002
									}
								}
							}
						}
					}
					JOINT Yihan_28_06:Solving:RightShoulder
					{
						OFFSET 0.000000 -8.642303 -5.270916
						CHANNELS 6 Xposition Yposition Zposition Xrotation Yrotation Zrotation
						JOINT Yihan_28_06:Solving:RightArm
						{
							OFFSET -17.619331 -0.000004 0.000000
							CHANNELS 6 Xposition Yposition Zposition Xrotation Yrotation Zrotation
							JOINT Yihan_28_06:Solving:RightForeArm
							{
								OFFSET -29.732449 -0.000008 0.000000
								CHANNELS 6 Xposition Yposition Zposition Xrotation Yrotation Zrotation
								JOINT Yihan_28_06:Solving:RightHand
								{
									OFFSET -23.617275 -0.000008 0.000000
									CHANNELS 6 Xposition Yposition Zposition Xrotation Yrotation Zrotation
									JOINT Yihan_28_06:Solving:RightHandThumb1
									{
										OFFSET -3.546165 2.953053 -2.636890
										CHANNELS 6 Xposition Yposition Zposition Xrotation Yrotation Zrotation
										End Site
										{
											OFFSET -5.198463 0.000000 -5.246530
										}
									}
									JOINT Yihan_28_06:Solving:RightHandMiddle1
									{
										OFFSET -9.456436 -0.000004 0.060618
										CHANNELS 6 Xposition Yposition Zposition Xrotation Yrotation Zrotation
										End Site
										{
											OFFSET -7.385803 -0.000004 0.000000
										}
									}
								}
							}
						}
					}
					JOINT Yihan_28_06:Solving:LeftShoulder
					{
						OFFSET 0.000000 -8.642303 -5.270916
						CHANNELS 6 Xposition Yposition Zposition Xrotation Yrotation Zrotation
						JOINT Yihan_28_06:Solving:LeftArm
						{
							OFFSET 17.619331 -0.000004 0.000000
							CHANNELS 6 Xposition Yposition Zposition Xrotation Yrotation Zrotation
							JOINT Yihan_28_06:Solving:LeftForeArm
							{
								OFFSET 29.732449 -0.000008 0.000000
								CHANNELS 6 Xposition Yposition Zposition Xrotation Yrotation Zrotation
								JOINT Yihan_28_06:Solving:LeftHand
								{
									OFFSET 23.617275 -0.000008 0.000000
									CHANNELS 6 Xposition Yposition Zposition Xrotation Yrotation Zrotation
									JOINT Yihan_28_06:Solving:LeftHandThumb1
									{
										OFFSET 3.546165 2.953053 -2.636890
										CHANNELS 6 Xposition Yposition Zposition Xrotation Yrotation Zrotation
										End Site
										{
											OFFSET 5.198463 0.000000 -5.246530
										}
									}
									JOINT Yihan_28_06:Solving:LeftHandMiddle1
									{
										OFFSET 9.456436 -0.000004 0.060618
										CHANNELS 6 Xposition Yposition Zposition Xrotation Yrotation Zrotation
										End Site
										{
											OFFSET 7.385803 -0.000004 0.000000
										}
									}
								}
							}
						}
					}
				}
			}
		}
	}
	JOINT Yihan_28_06:Solving:RightUpLeg
	{
		OFFSET -12.221851 0.000000 0.000000
		CHANNELS 6 Xposition Yposition Zposition Xrotation Yrotation Zrotation
		JOINT Yihan_28_06:Solving:RightLeg
		{
			OFFSET 0.000000 44.387260 -0.000006
			CHANNELS 6 Xposition Yposition Zposition Xrotation Yrotation Zrotation
			JOINT Yihan_28_06:Solving:RightFoot
			{
				OFFSET 0.000000 37.410240 -0.000006
				CHANNELS 6 Xposition Yposition Zposition Xrotation Yrotation Zrotation
				JOINT Yihan_28_06:Solving:RightForeFoot
				{
					OFFSET 0.000000 4.107742 -0.000000
					CHANNELS 6 Xposition Yposition Zposition Xrotation Yrotation Zrotation
					JOINT Yihan_28_06:Solving:RightToeBase
					{
						OFFSET 0.000000 0.000000 -16.087208
						CHANNELS 6 Xposition Yposition Zposition Xrotation Yrotation Zrotation
						JOINT Yihan_28_06:Solving:RightToeBaseEnd
						{
							OFFSET 0.000000 0.000000 -3.506769
							CHANNELS 6 Xposition Yposition Zposition Xrotation Yrotation Zrotation
							End Site
							{
								OFFSET 0.000000 -3.506767 0.000000
							}
						}
					}
				}
			}
		}
	}
	JOINT Yihan_28_06:Solving:LeftUpLeg
	{
		OFFSET 12.221851 0.000000 0.000000
		CHANNELS 6 Xposition Yposition Zposition Xrotation Yrotation Zrotation
		JOINT Yihan_28_06:Solving:LeftLeg
		{
			OFFSET 0.000000 44.387260 -0.000006
			CHANNELS 6 Xposition Yposition Zposition Xrotation Yrotation Zrotation
			JOINT Yihan_28_06:Solving:LeftFoot
			{
				OFFSET 0.000000 37.410240 -0.000006
				CHANNELS 6 Xposition Yposition Zposition Xrotation Yrotation Zrotation
				JOINT Yihan_28_06:Solving:LeftForeFoot
				{
					OFFSET 0.000000 4.107742 -0.000000
					CHANNELS 6 Xposition Yposition Zposition Xrotation Yrotation Zrotation
					JOINT Yihan_28_06:Solving:LeftToeBase
					{
						OFFSET 0.000000 0.000000 -16.087208
						CHANNELS 6 Xposition Yposition Zposition Xrotation Yrotation Zrotation
						JOINT Yihan_28_06:Solving:LeftToeBaseEnd
						{
							OFFSET 0.000000 0.000000 -3.932585
							CHANNELS 6 Xposition Yposition Zposition Xrotation Yrotation Zrotation
							End Site
							{
								OFFSET 0.000000 -3.932587 0.000000
							}
						}
					}
				}
			}
		}
	}
}
MOTION
Frames: 4
Frame Time: 0.041667
2.911383 -38.856850 -87.977989 135.228566 -14.354353 12.320739 -0.000005 -10.933681 1.754050 22.563718 0.010014 2.395059 -0.000004 -9.267552 1.634129 23.898029 0.050907 2.366649 -0.000002 -9.374701 0.820170 34.179950 -7.387611 -1.163598 0.000001 -9.410504 -0.000015 -11.381985 -1.481402 1.114410 0.000002 -12.099232 -1.209933 -15.329970 -2.215969 10.837140 0.000003 -7.349783 -0.643031 3.528827 14.170106 -14.260630 0.000001 -7.265760 -1.281165 0.588117 1.625265 -3.294879 -0.000001 -9.728073 0.000011 0.000000 -0.000000 0.000000 0.000001 -8.642300 -5.270930 0.000021 8.243804 29.500345 -17.619331 -0.000010 0.000006 -62.208045 -45.109349 -102.202484 -29.732435 -0.000008 0.000006 -159.148230 -36.457337 -167.246922 -23.617290 -0.000029 0.000007 13.470377 43.862618 -19.069125 -3.546166 2.953037 -2.636893 0.000003 -0.000002 -0.000001 -9.456451 -0.000007 0.060605 0.000000 0.000005 -0.000000 0.000003 -8.642310 -5.270927 0.000027 -3.742371 -27.748600 17.619329 0.000006 -0.000008 -44.652317 59.845557 98.780709 29.732456 -0.000007 -0.000000 -104.235148 18.771079 128.252142 23.617298 -0.000011 0.000001 1.039670 11.172714 -5.350527 3.546166 2.953039 -2.636882 -0.000010 0.000007 0.000001 9.456458 -0.000004 0.060615 -0.000004 0.000000 -0.000001 -12.221857 0.000004 -0.000007 -60.031673 -0.724882 -2.633114 -0.000002 44.387272 -0.000004 13.695236 0.000004 0.000002 0.000001 37.410271 -0.000004 2.759535 14.452337 2.482774 -0.000001 4.107742 -0.000005 0.000000 -0.000000 -0.000000 -0.000000 0.000011 -16.087210 13.655578 -0.000000 -0.000000 -0.000000 0.000001 -3.506774 0.000002 0.000000 0.000000 12.221847 -0.000007 0.000008 -55.980521 -9.191729 -2.178116 -0.000001 44.387280 -0.000003 9.054131 0.000008 0.000000 -0.000010 37.410244 -0.000007 4.769317 3.575519 11.688422 -0.000000 4.107742 0.000005 -0.000001 -0.000003 -0.000002 -0.000001 0.000001 -16.087210 -5.100103 0.000001 -0.000000 -0.000004 -0.000008 -3.932582 -0.000001 0.000001 -0.000001 
2.912971 -38.815468 -87.979530 135.211518 -14.369748 12.296840 0.000001 -10.933673 1.754057 22.610023 -0.003711 2.444339 0.000003 -9.267537 1.634151 23.822373 0.033887 2.429404 0.000000 -9.374701 0.820181 34.257599 -7.512128 -1.162207 0.000003 -9.410495 0.000010 -11.358302 -1.497685 1.104711 0.000010 -12.099220 -1.209914 -15.063062 -2.172800 10.686599 0.000001 -7.349789 -0.643023 3.948438 14.084664 -14.201687 0.000001 -7.265779 -1.281154 0.736538 1.637411 -3.343071 -0.000003 -9.728073 0.000004 -0.000001 -0.000002 -0.000001 0.000009 -8.642300 -5.270924 0.000012 8.177361 29.303482 -17.619328 -0.000013 -0.000004 -61.920808 -45.060783 -102.051065 -29.732450 -0.000016 0.000002 -159.221846 -36.480942 -167.287684 -23.617287 -0.000005 0.000004 13.396952 43.776977 -18.996453 -3.546178 2.953052 -2.636885 0.000001 -0.000000 0.000004 -9.456458 0.000016 0.060618 0.000006 0.000007 0.000001 0.000004 -8.642307 -5.270923 0.000017 -3.754173 -27.708541 17.619335 -0.000002 -0.000008 -44.902207 59.612006 98.806930 29.732450 -0.000026 0.000005 -104.241657 18.784829 128.245777 23.617268 -0.000017 -0.000005 1.032857 11.146079 -5.328159 3.546159 2.953043 -2.636886 -0.000002 0.000005 0.000002 9.456448 -0.000005 0.060611 0.000000 0.000008 0.000005 -12.221848 0.000006 0.000016 -60.029317 -0.796781 -2.634177 0.000000 44.387260 -0.000003 13.774867 0.000002 0.000002 0.000001 37.410244 -0.000001 2.706091 14.509726 2.490927 0.000002 4.107735 -0.000001 -0.000000 -0.000000 0.000000 0.000000 -0.000003 -16.087202 13.650775 -0.000000 0.000000 -0.000000 0.000000 -3.506774 0.000000 -0.000000 0.000000 12.221853 0.000009 0.000011 -55.921976 -9.268721 -2.170760 -0.000004 44.387272 -0.000014 9.027782 0.000001 -0.000000 -0.000006 37.410244 -0.000007 4.765460 3.634221 11.707134 -0.000003 4.107742 -0.000002 -0.000001 -0.000001 -0.000001 -0.000004 0.000018 -16.087204 -5.148654 0.000008 -0.000000 -0.000003 -0.000007 -3.932583 0.000001 0.000001 -0.000001 
2.913057 -38.773014 -87.982460 135.191560 -14.392315 12.281992 0.000002 -10.933695 1.754047 22.634748 -0.028568 2.473302 0.000001 -9.267549 1.634125 23.766739 0.022765 2.477527 -0.000001 -9.374703 0.820180 34.328063 -7.619575 -1.178594 0.000003 -9.410501 -0.000005 -11.342517 -1.515558 1.099588 -0.000000 -12.099226 -1.209924 -14.753863 -2.098364 10.517284 0.000002 -7.349785 -0.643023 4.290212 14.030174 -14.083417 0.000000 -7.265779 -1.281146 0.843545 1.645107 -3.355204 0.000000 -9.728073 -0.000007 0.000000 0.000000 -0.000000 0.000001 -8.642303 -5.270927 0.000022 8.137051 29.133253 -17.619331 -0.000000 -0.000006 -61.729884 -45.023565 -101.981650 -29.732447 -0.000009 0.000005 -159.240547 -36.498499 -167.294706 -23.617283 -0.000017 0.000015 13.357445 43.751084 -18.950811 -3.546158 2.953046 -2.636881 -0.000001 0.000009 0.000001 -9.456448 0.000017 0.060611 0.000007 -0.000000 0.000005 -0.000004 -8.642314 -5.270926 0.000031 -3.764773 -27.667406 17.619341 -0.000001 -0.000009 -45.128218 59.413493 98.793099 29.732450 -0.000014 -0.000014 -104.252278 18.797475 128.249369 23.617300 -0.000015 -0.000001 1.030850 11.138683 -5.321299 3.546165 2.953056 -2.636889 -0.000005 -0.000007 -0.000001 9.456459 0.000006 0.060620 -0.000008 -0.000004 0.000000 -12.221848 -0.000010 0.000003 -60.023443 -0.866935 -2.636789 0.000004 44.387268 -0.000004 13.859918 -0.000002 0.000002 -0.000001 37.410248 -0.000006 2.648423 14.583620 2.495520 0.000001 4.107742 0.000002 0.000000 0.000001 0.000000 0.000000 0.000018 -16.087214 13.669001 -0.000000 -0.000000 0.000001 0.000001 -3.506769 0.000002 -0.000000 0.000000 12.221856 -0.000012 0.000001 -55.855358 -9.361882 -2.166476 -0.000007 44.387249 -0.000004 8.994010 0.000001 0.000002 -0.000007 37.410252 -0.000008 4.756526 3.731988 11.715403 -0.000002 4.107749 -0.000006 -0.000001 0.000000 0.000001 -0.000004 0.000019 -16.087202 -5.182211 -0.000001 -0.000002 0.000004 -0.000015 -3.932588 0.000001 -0.000003 -0.000000 
2.914410 -38.731358 -87.987144 135.156480 -14.423691 12.265396 0.000001 -10.933677 1.754046 22.682947 -0.056845 2.494989 -0.000001 -9.267547 1.634106 23.690856 0.012946 2.516178 0.000001 -9.374703 0.820184 34.347816 -7.716124 -1.214451 -0.000002 -9.410513 0.000007 -11.311767 -1.532282 1.092517 -0.000003 -12.099201 -1.209915 -14.497599 -2.026232 10.356619 -0.000001 -7.349790 -0.643004 4.703684 13.984983 -13.930309 -0.000001 -7.265780 -1.281181 0.992271 1.651557 -3.369173 -0.000002 -9.728073 -0.000005 -0.000000 -0.000001 0.000000 0.000000 -8.642284 -5.270922 0.000011 8.058890 28.989611 -17.619331 -0.000013 -0.000003 -61.481763 -45.004277 -101.885181 -29.732450 0.000002 0.000003 -159.189102 -36.523740 -167.254052 -23.617289 -0.000016 0.000004 13.396360 43.693813 -19.022423 -3.546162 2.953040 -2.636887 -0.000006 -0.000003 0.000004 -9.456449 -0.000007 0.060614 0.000001 -0.000001 0.000003 -0.000004 -8.642284 -5.270921 0.000017 -3.739431 -27.647692 17.619335 0.000002 0.000003 -45.332310 59.242472 98.774876 29.732452 -0.000007 -0.000001 -104.270460 18.822278 128.250926 23.617266 -0.000026 -0.000002 1.031766 11.144386 -5.323309 3.546159 2.953036 -2.636889 -0.000002 -0.000010 0.000000 9.456448 0.000003 0.060615 0.000004 -0.000004 -0.000004 -12.221852 0.000009 -0.000005 -59.992468 -0.886953 -2.626630 -0.000002 44.387264 -0.000002 13.935465 0.000001 -0.000000 -0.000001 37.410244 -0.000001 2.594938 14.599686 2.513459 0.000000 4.107742 -0.000000 0.000000 0.000001 -0.000000 0.000000 0.000010 -16.087208 13.644140 -0.000000 -0.000000 0.000000 0.000001 -3.506773 0.000002 0.000000 -0.000000 12.221849 -0.000000 -0.000000 -55.766056 -9.456287 -2.156664 -0.000000 44.387276 -0.000017 8.941042 0.000002 0.000000 -0.000002 37.410229 -0.000006 4.774704 3.833641 11.718655 -0.000004 4.107742 -0.000002 -0.000001 -0.000002 -0.000000 0.000000 0.000016 -16.087206 -5.211525 -0.000003 -0.000002 0.000001 -0.000015 -3.932588 0.000001 -0.000002 -0.000000 
